<svg xmlns="http://www.w3.org/2000/svg" width="2048" height="2048" viewBox="0 0 2048 2048">
<title>cropped pullover hoodie - Right cuff</title>
<g transform="translate(0,2048) scale(0.1,-0.1)" fill="#000000" stroke="none">
<path d="M14293 6073C14293 6070 14296 6067 14300 6067C14304 6067 14307 6062 14307 6053C14307 6044 14309 6040 14313 6040C14318 6040 14320 6035 14320 6020C14320 6005 14322 6000 14327 6000C14331 6000 14333 5996 14333 5987C14333 5978 14336 5973 14340 5973C14344 5973 14347 5969 14347 5960C14347 5951 14349 5947 14353 5947C14358 5947 14360 5941 14360 5927C14360 5912 14362 5907 14367 5907C14371 5907 14373 5902 14373 5893C14373 5884 14376 5880 14380 5880C14384 5880 14387 5876 14387 5867C14387 5858 14389 5853 14393 5853C14398 5853 14400 5848 14400 5833C14400 5819 14402 5813 14407 5813C14411 5813 14413 5809 14413 5800C14413 5791 14416 5787 14420 5787C14424 5787 14427 5782 14427 5773C14427 5764 14429 5760 14433 5760C14438 5760 14440 5756 14440 5747C14440 5738 14442 5733 14447 5733C14451 5733 14453 5729 14453 5720C14453 5711 14456 5707 14460 5707C14465 5707 14467 5701 14467 5687C14467 5672 14468 5667 14473 5667C14478 5667 14480 5662 14480 5653C14480 5644 14482 5640 14487 5640C14491 5640 14493 5636 14493 5627C14493 5618 14496 5613 14500 5613C14504 5613 14507 5609 14507 5600C14507 5591 14509 5587 14513 5587C14518 5587 14520 5582 14520 5573C14520 5564 14522 5560 14527 5560C14530 5560 14533 5557 14533 5553C14533 5550 14536 5547 14540 5547C14544 5547 14547 5542 14547 5533C14547 5524 14549 5520 14553 5520C14558 5520 14560 5516 14560 5507C14560 5498 14562 5493 14567 5493C14570 5493 14573 5490 14573 5487C14573 5483 14576 5480 14580 5480C14584 5480 14587 5476 14587 5467C14587 5458 14589 5453 14593 5453C14598 5453 14600 5449 14600 5440C14600 5431 14602 5427 14607 5427C14610 5427 14613 5424 14613 5420C14613 5416 14616 5413 14620 5413C14624 5413 14627 5409 14627 5400C14627 5391 14629 5387 14633 5387C14637 5387 14640 5384 14640 5380C14640 5376 14643 5373 14647 5373C14651 5373 14653 5369 14653 5360C14653 5351 14656 5347 14660 5347C14664 5347 14667 5344 14667 5340C14667 5336 14670 5333 14673 5333C14678 5333 14680 5329 14680 5320C14680 5311 14682 5307 14687 5307C14690 5307 14693 5304 14693 5300C14693 5296 14696 5293 14700 5293C14704 5293 14707 5290 14707 5287C14707 5283 14710 5280 14713 5280C14717 5280 14720 5277 14720 5273C14720 5270 14723 5267 14727 5267C14731 5267 14733 5262 14733 5253C14733 5244 14736 5240 14740 5240C14744 5240 14747 5237 14747 5233C14747 5230 14750 5227 14753 5227C14757 5227 14760 5224 14760 5220C14760 5216 14764 5213 14773 5213C14782 5213 14787 5211 14787 5207C14787 5203 14790 5200 14793 5200C14797 5200 14800 5197 14800 5193C14800 5188 14805 5187 14820 5187C14835 5187 14840 5188 14840 5193C14840 5199 14853 5200 14933 5200C15013 5200 15027 5199 15027 5193C15027 5187 15097 5187 15633 5187L16240 5187 16240 5253C16240 5310 16241 5320 16247 5320C16252 5320 16253 5327 16253 5360L16253 5400 16267 5400C16276 5400 16280 5402 16280 5407C16280 5410 16283 5413 16287 5413C16290 5413 16293 5416 16293 5420C16293 5424 16296 5427 16300 5427C16304 5427 16307 5431 16307 5440C16307 5449 16309 5453 16313 5453C16317 5453 16320 5456 16320 5460C16320 5464 16323 5467 16327 5467C16331 5467 16333 5471 16333 5480C16333 5489 16336 5493 16340 5493C16344 5493 16347 5498 16347 5507C16347 5516 16349 5520 16353 5520C16358 5520 16360 5524 16360 5533C16360 5542 16362 5547 16367 5547C16371 5547 16373 5551 16373 5560C16373 5569 16376 5573 16380 5573C16385 5573 16387 5579 16387 5593C16387 5608 16388 5613 16393 5613C16398 5613 16400 5619 16400 5633C16400 5648 16402 5653 16407 5653C16412 5653 16413 5659 16413 5673C16413 5688 16415 5693 16420 5693C16425 5693 16427 5700 16427 5727C16427 5753 16428 5760 16433 5760C16439 5760 16440 5767 16440 5800C16440 5833 16441 5840 16447 5840C16452 5840 16453 5850 16453 5900C16453 5950 16454 5960 16460 5960C16466 5960 16467 5970 16467 6020L16467 6080 15380 6080C14417 6080 14293 6079 14293 6073" fill-rule="evenodd"/>
</g>
<g transform="translate(0,2048) scale(0.1,-0.1)" fill="#141414" stroke="none">
<path d="M14253 6093C14253 6073 14255 6067 14260 6067C14265 6067 14267 6061 14267 6047C14267 6032 14268 6027 14273 6027C14278 6027 14280 6022 14280 6013C14280 6004 14282 6000 14287 6000C14292 6000 14293 5995 14293 5980C14293 5965 14295 5960 14300 5960C14304 5960 14307 5956 14307 5947C14307 5938 14309 5933 14313 5933C14318 5933 14320 5929 14320 5920C14320 5911 14322 5907 14327 5907C14332 5907 14333 5901 14333 5887C14333 5872 14335 5867 14340 5867C14344 5867 14347 5862 14347 5853C14347 5844 14349 5840 14353 5840C14358 5840 14360 5836 14360 5827C14360 5818 14362 5813 14367 5813C14371 5813 14373 5809 14373 5800C14373 5791 14376 5787 14380 5787C14385 5787 14387 5781 14387 5767C14387 5752 14388 5747 14393 5747C14398 5747 14400 5742 14400 5733C14400 5724 14402 5720 14407 5720C14411 5720 14413 5716 14413 5707C14413 5698 14416 5693 14420 5693C14424 5693 14427 5689 14427 5680C14427 5671 14429 5667 14433 5667C14438 5667 14440 5662 14440 5653C14440 5644 14442 5640 14447 5640C14451 5640 14453 5636 14453 5627C14453 5618 14456 5613 14460 5613C14464 5613 14467 5609 14467 5600C14467 5591 14469 5587 14473 5587C14478 5587 14480 5582 14480 5573C14480 5564 14482 5560 14487 5560C14491 5560 14493 5556 14493 5547C14493 5538 14496 5533 14500 5533C14504 5533 14507 5529 14507 5520C14507 5511 14509 5507 14513 5507C14517 5507 14520 5504 14520 5500C14520 5496 14523 5493 14527 5493C14531 5493 14533 5489 14533 5480C14533 5471 14536 5467 14540 5467C14544 5467 14547 5462 14547 5453C14547 5444 14549 5440 14553 5440C14557 5440 14560 5437 14560 5433C14560 5430 14563 5427 14567 5427C14571 5427 14573 5422 14573 5413C14573 5404 14576 5400 14580 5400C14584 5400 14587 5396 14587 5387C14587 5378 14589 5373 14593 5373C14597 5373 14600 5370 14600 5367C14600 5363 14603 5360 14607 5360C14611 5360 14613 5356 14613 5347C14613 5338 14616 5333 14620 5333C14624 5333 14627 5330 14627 5327C14627 5323 14630 5320 14633 5320C14637 5320 14640 5317 14640 5313C14640 5310 14643 5307 14647 5307C14651 5307 14653 5302 14653 5293C14653 5284 14656 5280 14660 5280C14664 5280 14667 5277 14667 5273C14667 5270 14670 5267 14673 5267C14677 5267 14680 5264 14680 5260C14680 5256 14683 5253 14687 5253C14691 5253 14693 5249 14693 5240C14693 5231 14696 5227 14700 5227C14704 5227 14707 5224 14707 5220C14707 5216 14710 5213 14713 5213C14717 5213 14720 5210 14720 5207C14720 5203 14723 5200 14727 5200C14730 5200 14733 5197 14733 5193C14733 5190 14736 5187 14740 5187C14744 5187 14747 5184 14747 5180C14747 5176 14750 5173 14753 5173C14757 5173 14760 5170 14760 5167C14760 5162 14764 5160 14773 5160C14782 5160 14787 5158 14787 5153C14787 5148 14793 5147 14813 5147C14834 5147 14840 5148 14840 5153C14840 5158 14845 5160 14860 5160C14875 5160 14880 5162 14880 5167C14880 5171 14884 5173 14893 5173C14902 5173 14907 5171 14907 5167C14907 5163 14910 5160 14913 5160C14917 5160 14920 5163 14920 5167C14920 5172 14925 5173 14940 5173C14955 5173 14960 5175 14960 5180C14960 5185 14967 5187 14993 5187C15020 5187 15027 5188 15027 5193C15027 5199 15033 5200 15060 5200L15093 5200 15093 5173C15093 5153 15095 5147 15100 5147C15105 5147 15107 5153 15107 5180L15107 5213 15120 5213C15129 5213 15133 5216 15133 5220C15133 5225 15140 5227 15167 5227C15193 5227 15200 5228 15200 5233C15200 5238 15204 5240 15213 5240C15222 5240 15227 5242 15227 5247C15227 5252 15232 5253 15247 5253L15267 5253 15267 5213C15267 5181 15268 5173 15273 5173C15278 5173 15280 5169 15280 5160C15280 5151 15282 5147 15287 5147C15292 5147 15293 5153 15293 5173C15293 5194 15292 5200 15287 5200C15281 5200 15280 5207 15280 5233L15280 5267 15300 5267C15315 5267 15320 5268 15320 5273C15320 5278 15324 5280 15333 5280C15346 5280 15347 5279 15347 5260C15347 5245 15348 5240 15353 5240C15359 5240 15360 5232 15360 5193L15360 5147 15373 5147C15385 5147 15387 5148 15387 5160C15387 5169 15384 5173 15380 5173C15374 5173 15373 5181 15373 5220L15373 5267 15407 5267C15433 5267 15440 5265 15440 5260C15440 5256 15444 5253 15453 5253C15462 5253 15467 5256 15467 5260C15467 5265 15472 5267 15487 5267C15501 5267 15507 5265 15507 5260C15507 5256 15511 5253 15520 5253C15529 5253 15533 5256 15533 5260C15533 5264 15536 5267 15540 5267C15544 5267 15547 5264 15547 5260C15547 5256 15550 5253 15553 5253C15557 5253 15560 5250 15560 5247C15560 5243 15557 5240 15553 5240C15548 5240 15547 5235 15547 5220C15547 5205 15548 5200 15553 5200C15559 5200 15560 5194 15560 5173C15560 5153 15561 5147 15567 5147C15572 5147 15573 5156 15573 5207L15573 5267 15587 5267C15596 5267 15600 5269 15600 5273C15600 5278 15605 5280 15620 5280C15635 5280 15640 5282 15640 5287C15640 5290 15643 5293 15647 5293C15652 5293 15653 5284 15653 5240C15653 5196 15654 5187 15660 5187C15665 5187 15667 5181 15667 5167C15667 5152 15668 5147 15673 5147C15679 5147 15680 5153 15680 5180C15680 5207 15679 5213 15673 5213C15668 5213 15667 5221 15667 5260L15667 5307 15680 5307C15689 5307 15693 5309 15693 5313C15693 5319 15699 5320 15720 5320L15747 5320 15747 5253C15747 5197 15748 5187 15753 5187C15758 5187 15760 5181 15760 5167C15760 5152 15762 5147 15767 5147C15772 5147 15773 5154 15773 5187C15773 5219 15772 5227 15767 5227C15761 5227 15760 5236 15760 5280L15760 5333 15793 5333L15827 5333 15827 5300C15827 5273 15828 5267 15833 5267C15839 5267 15840 5273 15840 5300L15840 5333 15880 5333L15920 5333 15920 5240L15920 5147 15933 5147C15942 5147 15947 5149 15947 5153C15947 5157 15944 5160 15940 5160C15934 5160 15933 5173 15933 5247L15933 5333 15967 5333L16000 5333 16000 5240L16000 5147 16013 5147C16026 5147 16027 5147 16027 5167C16027 5181 16025 5187 16020 5187C16014 5187 16013 5198 16013 5260L16013 5333 16027 5333C16036 5333 16040 5336 16040 5340C16040 5345 16045 5347 16060 5347L16080 5347 16080 5247L16080 5147 16093 5147L16107 5147 16107 5240C16107 5320 16106 5333 16100 5333C16096 5333 16093 5336 16093 5340C16093 5345 16099 5347 16120 5347C16141 5347 16147 5348 16147 5353C16147 5357 16150 5360 16153 5360C16157 5360 16160 5357 16160 5353C16160 5350 16163 5347 16167 5347C16172 5347 16173 5333 16173 5247C16173 5161 16174 5147 16180 5147C16186 5147 16187 5161 16187 5253L16187 5360 16213 5360C16234 5360 16240 5361 16240 5367C16240 5370 16243 5373 16247 5373C16252 5373 16253 5367 16253 5347C16253 5326 16252 5320 16247 5320C16241 5320 16240 5307 16240 5233L16240 5147 16260 5147L16280 5147 16280 5227C16280 5295 16281 5307 16287 5307C16292 5307 16293 5313 16293 5333C16293 5354 16295 5360 16300 5360C16304 5360 16307 5364 16307 5373C16307 5382 16309 5387 16313 5387C16317 5387 16320 5390 16320 5393C16320 5397 16323 5400 16327 5400C16330 5400 16333 5403 16333 5407C16333 5410 16336 5413 16340 5413C16344 5413 16347 5418 16347 5427C16347 5436 16349 5440 16353 5440C16357 5440 16360 5443 16360 5447C16360 5450 16363 5453 16367 5453C16371 5453 16373 5458 16373 5467C16373 5476 16376 5480 16380 5480C16384 5480 16387 5484 16387 5493C16387 5502 16389 5507 16393 5507C16398 5507 16400 5511 16400 5520C16400 5529 16402 5533 16407 5533C16412 5533 16413 5539 16413 5553C16413 5568 16415 5573 16420 5573C16425 5573 16427 5579 16427 5593C16427 5608 16428 5613 16433 5613C16438 5613 16440 5619 16440 5633C16440 5648 16442 5653 16447 5653C16452 5653 16453 5659 16453 5680C16453 5701 16455 5707 16460 5707C16465 5707 16467 5713 16467 5733C16467 5754 16468 5760 16473 5760C16479 5760 16480 5767 16480 5800C16480 5833 16481 5840 16487 5840C16492 5840 16493 5849 16493 5893C16493 5938 16494 5947 16500 5947C16506 5947 16507 5959 16507 6033L16507 6120 16487 6120L16467 6120 16467 6040C16467 5972 16466 5960 16460 5960C16454 5960 16453 5950 16453 5900C16453 5850 16452 5840 16447 5840C16441 5840 16440 5833 16440 5800C16440 5767 16439 5760 16433 5760C16428 5760 16427 5753 16427 5727C16427 5700 16425 5693 16420 5693C16415 5693 16413 5688 16413 5673C16413 5659 16412 5653 16407 5653C16402 5653 16400 5648 16400 5633C16400 5619 16398 5613 16393 5613C16388 5613 16387 5608 16387 5593C16387 5579 16385 5573 16380 5573C16376 5573 16373 5569 16373 5560C16373 5551 16371 5547 16367 5547C16362 5547 16360 5542 16360 5533C16360 5524 16358 5520 16353 5520C16349 5520 16347 5516 16347 5507C16347 5498 16344 5493 16340 5493C16336 5493 16333 5489 16333 5480C16333 5471 16331 5467 16327 5467C16323 5467 16320 5464 16320 5460C16320 5456 16317 5453 16313 5453C16309 5453 16307 5449 16307 5440C16307 5431 16304 5427 16300 5427C16296 5427 16293 5424 16293 5420C16293 5416 16290 5413 16287 5413C16283 5413 16280 5410 16280 5407C16280 5401 16273 5400 16247 5400C16220 5400 16213 5399 16213 5393C16213 5388 16206 5387 16173 5387C16141 5387 16133 5385 16133 5380C16133 5374 16124 5373 16073 5373C16023 5373 16013 5372 16013 5367C16013 5361 16003 5360 15947 5360C15890 5360 15880 5361 15880 5367C15880 5372 15871 5373 15827 5373C15782 5373 15773 5374 15773 5380C15773 5384 15770 5387 15767 5387C15763 5387 15760 5384 15760 5380C15760 5376 15756 5373 15747 5373C15738 5373 15733 5371 15733 5367C15733 5362 15729 5360 15720 5360C15711 5360 15707 5358 15707 5353C15707 5348 15701 5347 15680 5347L15653 5347 15653 5333C15653 5321 15652 5320 15640 5320C15631 5320 15627 5318 15627 5313C15627 5308 15621 5307 15600 5307C15579 5307 15573 5305 15573 5300C15573 5294 15561 5293 15493 5293C15425 5293 15413 5294 15413 5300C15413 5305 15408 5307 15393 5307C15379 5307 15373 5308 15373 5313C15373 5317 15370 5320 15367 5320C15362 5320 15360 5325 15360 5340L15360 5360 15340 5360C15325 5360 15320 5358 15320 5353C15320 5350 15317 5347 15313 5347C15310 5347 15307 5350 15307 5353C15307 5358 15302 5360 15293 5360C15284 5360 15280 5358 15280 5353C15280 5348 15274 5347 15253 5347C15233 5347 15227 5345 15227 5340C15227 5336 15222 5333 15213 5333C15204 5333 15200 5331 15200 5327C15200 5322 15196 5320 15187 5320C15178 5320 15173 5318 15173 5313C15173 5308 15179 5307 15193 5307C15208 5307 15213 5308 15213 5313C15213 5318 15219 5320 15233 5320C15248 5320 15253 5322 15253 5327C15253 5332 15261 5333 15300 5333L15347 5333 15347 5320L15347 5307 15320 5307C15299 5307 15293 5305 15293 5300C15293 5295 15288 5293 15273 5293C15259 5293 15253 5292 15253 5287C15253 5282 15248 5280 15233 5280C15219 5280 15213 5278 15213 5273C15213 5268 15208 5267 15193 5267C15179 5267 15173 5265 15173 5260C15173 5255 15168 5253 15153 5253C15139 5253 15133 5252 15133 5247C15133 5241 15127 5240 15107 5240C15086 5240 15080 5239 15080 5233C15080 5228 15073 5227 15047 5227C15020 5227 15013 5225 15013 5220C15013 5215 15007 5213 14980 5213C14953 5213 14947 5212 14947 5207C14947 5201 14938 5200 14893 5200C14849 5200 14840 5199 14840 5193C14840 5188 14835 5187 14820 5187C14805 5187 14800 5188 14800 5193C14800 5197 14797 5200 14793 5200C14790 5200 14787 5203 14787 5207C14787 5211 14782 5213 14773 5213C14764 5213 14760 5216 14760 5220C14760 5224 14757 5227 14753 5227C14750 5227 14747 5230 14747 5233C14747 5237 14744 5240 14740 5240C14736 5240 14733 5244 14733 5253C14733 5262 14731 5267 14727 5267C14723 5267 14720 5270 14720 5273C14720 5277 14717 5280 14713 5280C14710 5280 14707 5283 14707 5287C14707 5290 14704 5293 14700 5293C14696 5293 14693 5296 14693 5300C14693 5304 14690 5307 14687 5307C14682 5307 14680 5311 14680 5320C14680 5329 14678 5333 14673 5333C14670 5333 14667 5336 14667 5340C14667 5344 14664 5347 14660 5347C14656 5347 14653 5351 14653 5360C14653 5369 14651 5373 14647 5373C14643 5373 14640 5376 14640 5380C14640 5384 14637 5387 14633 5387C14629 5387 14627 5391 14627 5400C14627 5409 14624 5413 14620 5413C14616 5413 14613 5416 14613 5420C14613 5424 14610 5427 14607 5427C14602 5427 14600 5431 14600 5440C14600 5449 14598 5453 14593 5453C14589 5453 14587 5458 14587 5467C14587 5476 14584 5480 14580 5480C14576 5480 14573 5483 14573 5487C14573 5490 14570 5493 14567 5493C14562 5493 14560 5498 14560 5507C14560 5516 14558 5520 14553 5520C14549 5520 14547 5524 14547 5533C14547 5542 14544 5547 14540 5547C14536 5547 14533 5550 14533 5553C14533 5557 14530 5560 14527 5560C14522 5560 14520 5564 14520 5573C14520 5582 14518 5587 14513 5587C14509 5587 14507 5591 14507 5600C14507 5609 14504 5613 14500 5613C14496 5613 14493 5618 14493 5627C14493 5636 14491 5640 14487 5640C14482 5640 14480 5644 14480 5653C14480 5662 14478 5667 14473 5667C14468 5667 14467 5672 14467 5687C14467 5701 14465 5707 14460 5707C14456 5707 14453 5711 14453 5720C14453 5729 14451 5733 14447 5733C14442 5733 14440 5738 14440 5747C14440 5756 14438 5760 14433 5760C14429 5760 14427 5764 14427 5773C14427 5782 14424 5787 14420 5787C14416 5787 14413 5791 14413 5800C14413 5809 14411 5813 14407 5813C14402 5813 14400 5819 14400 5833C14400 5848 14398 5853 14393 5853C14389 5853 14387 5858 14387 5867C14387 5876 14384 5880 14380 5880C14376 5880 14373 5884 14373 5893C14373 5902 14371 5907 14367 5907C14362 5907 14360 5912 14360 5927C14360 5941 14358 5947 14353 5947C14349 5947 14347 5951 14347 5960C14347 5969 14344 5973 14340 5973C14336 5973 14333 5978 14333 5987C14333 5996 14331 6000 14327 6000C14322 6000 14320 6005 14320 6020C14320 6035 14318 6040 14313 6040C14309 6040 14307 6044 14307 6053C14307 6062 14304 6067 14300 6067C14295 6067 14293 6072 14293 6087C14293 6101 14292 6107 14287 6107C14283 6107 14280 6110 14280 6113C14280 6118 14276 6120 14267 6120L14253 6120 14253 6093M15613 5587C15613 5566 15615 5560 15620 5560C15625 5560 15627 5554 15627 5533C15627 5513 15628 5507 15633 5507C15639 5507 15640 5500 15640 5473C15640 5447 15641 5440 15647 5440C15652 5440 15653 5434 15653 5413C15653 5393 15652 5387 15647 5387C15643 5387 15640 5384 15640 5380C15640 5376 15643 5373 15647 5373C15650 5373 15653 5370 15653 5367C15653 5363 15656 5360 15660 5360C15664 5360 15667 5363 15667 5367C15667 5370 15670 5373 15673 5373C15677 5373 15680 5376 15680 5380C15680 5384 15684 5387 15693 5387C15702 5387 15707 5389 15707 5393C15707 5398 15711 5400 15720 5400C15729 5400 15733 5402 15733 5407C15733 5412 15744 5413 15807 5413C15869 5413 15880 5412 15880 5407C15880 5403 15883 5400 15887 5400C15890 5400 15893 5403 15893 5407C15893 5410 15896 5413 15900 5413C15904 5413 15907 5416 15907 5420C15907 5426 15893 5427 15813 5427C15733 5427 15720 5426 15720 5420C15720 5416 15716 5413 15707 5413C15698 5413 15693 5411 15693 5407C15693 5402 15689 5400 15680 5400L15667 5400 15667 5433C15667 5460 15665 5467 15660 5467C15655 5467 15653 5473 15653 5493C15653 5514 15652 5520 15647 5520C15641 5520 15640 5526 15640 5547C15640 5567 15639 5573 15633 5573C15628 5573 15627 5579 15627 5593C15627 5608 15625 5613 15620 5613C15615 5613 15613 5607 15613 5587M16240 5447C16240 5441 16234 5440 16213 5440C16193 5440 16187 5439 16187 5433C16187 5428 16194 5427 16227 5427C16259 5427 16267 5428 16267 5433C16267 5438 16271 5440 16280 5440C16289 5440 16293 5442 16293 5447C16293 5452 16287 5453 16267 5453C16246 5453 16240 5452 16240 5447M16133 5433C16133 5430 16136 5427 16140 5427C16144 5427 16147 5424 16147 5420C16147 5416 16151 5413 16160 5413C16172 5413 16173 5415 16173 5427C16173 5440 16173 5440 16153 5440C16139 5440 16133 5438 16133 5433M15920 5413C15920 5401 15921 5400 15933 5400C15942 5400 15947 5402 15947 5407C15947 5410 15950 5413 15953 5413C15957 5413 15960 5410 15960 5407C15960 5403 15963 5400 15967 5400C15970 5400 15973 5403 15973 5407C15973 5412 15979 5413 15993 5413C16008 5413 16013 5415 16013 5420C16013 5426 16005 5427 15967 5427L15920 5427 15920 5413M16040 5420C16040 5415 16047 5413 16080 5413C16113 5413 16120 5415 16120 5420C16120 5425 16113 5427 16080 5427C16047 5427 16040 5425 16040 5420M15613 5367C15613 5363 15616 5360 15620 5360C15624 5360 15627 5363 15627 5367C15627 5370 15624 5373 15620 5373C15616 5373 15613 5370 15613 5367M15413 5353C15413 5350 15410 5347 15407 5347C15403 5347 15400 5344 15400 5340C15400 5335 15407 5333 15433 5333C15460 5333 15467 5335 15467 5340C15467 5345 15461 5347 15447 5347C15432 5347 15427 5348 15427 5353C15427 5357 15424 5360 15420 5360C15416 5360 15413 5357 15413 5353M15533 5353C15533 5348 15540 5347 15567 5347C15593 5347 15600 5348 15600 5353C15600 5359 15593 5360 15567 5360C15540 5360 15533 5359 15533 5353M15480 5340C15480 5335 15485 5333 15500 5333C15515 5333 15520 5335 15520 5340C15520 5345 15515 5347 15500 5347C15485 5347 15480 5345 15480 5340M15120 5300C15120 5296 15116 5293 15107 5293C15098 5293 15093 5291 15093 5287C15093 5281 15099 5280 15120 5280C15141 5280 15147 5281 15147 5287C15147 5290 15150 5293 15153 5293C15157 5293 15160 5296 15160 5300C15160 5305 15155 5307 15140 5307C15125 5307 15120 5305 15120 5300M14987 5267C14987 5255 14988 5253 15000 5253C15009 5253 15013 5256 15013 5260C15013 5265 15019 5267 15040 5267C15061 5267 15067 5268 15067 5273C15067 5279 15059 5280 15027 5280L14987 5280 14987 5267M14907 5260C14907 5256 14902 5253 14893 5253C14884 5253 14880 5251 14880 5247C14880 5241 14887 5240 14920 5240L14960 5240 14960 5253L14960 5267 14933 5267C14913 5267 14907 5265 14907 5260M14840 5247C14840 5241 14834 5240 14813 5240C14793 5240 14787 5239 14787 5233C14787 5228 14794 5227 14827 5227C14859 5227 14867 5228 14867 5233C14867 5237 14864 5240 14860 5240C14856 5240 14853 5243 14853 5247C14853 5250 14850 5253 14847 5253C14843 5253 14840 5250 14840 5247M15840 5200C15840 5156 15841 5147 15847 5147C15852 5147 15853 5156 15853 5200C15853 5244 15852 5253 15847 5253C15841 5253 15840 5244 15840 5200M15453 5193L15453 5147 15467 5147C15479 5147 15480 5148 15480 5160C15480 5169 15478 5173 15473 5173C15468 5173 15467 5180 15467 5207C15467 5233 15465 5240 15460 5240C15454 5240 15453 5232 15453 5193M15187 5180C15187 5153 15188 5147 15193 5147C15199 5147 15200 5153 15200 5180C15200 5207 15199 5213 15193 5213C15188 5213 15187 5207 15187 5180" fill="#141414" fill-rule="evenodd"/>
</g>
</svg>
